<svg width="100" height="100" fill="none" xmlns="http://www.w3.org/2000/svg"><g clip-path="url(#clip0_373_2)" fill="#CE282E"><path d="M33.523 34.986a20 20 0 100 40 20 20 0 000-40zm6.204 4.088a2.5 2.5 0 012.127 3.781l-6.9 11.952 7.247 4.672a2.5 2.5 0 11-2.709 4.203l-9.25-5.96a2.5 2.5 0 01-.81-3.353l8.091-14.014a2.5 2.5 0 012.204-1.28z"/><path fill-rule="evenodd" clip-rule="evenodd" d="M2.523 5A2.5 2.5 0 000 7.5v70.29a2.5 2.5 0 001.447 2.267l31.666 14.71a2.5 2.5 0 002.109.001l30.613-14.22 30.613 14.22A2.5 2.5 0 00100 92.5V22.21a2.5 2.5 0 00-1.447-2.267L66.887 5.233a2.5 2.5 0 00-2.108 0l-30.613 14.22L3.553 5.233A2.5 2.5 0 002.523 5zm64.428 5.775L95 23.805v64.777L67.322 75.725l-.371-64.95zm-2.998.354l.37 64.605-28.677 13.323-.062-10.87c-.998.077-2 .09-3 .032l.062 10.818L5 76.193V11.418l27.275 12.67.045 7.908a22.252 22.252 0 013.002.182l-.045-7.727L63.953 11.13z"/></g><defs><clipPath id="clip0_373_2"><path fill="#fff" d="M0 0h100v100H0z"/></clipPath></defs></svg>