<svg width="30" height="30" fill="none" xmlns="http://www.w3.org/2000/svg"><path d="M25.696 6.993l-3.12-3.117a2.015 2.015 0 00-2.86 0l-3.36 3.354a2.022 2.022 0 000 2.866l2.625 2.628a11.878 11.878 0 01-2.53 3.73 11.9 11.9 0 01-3.727 2.536l-2.625-2.628a2.015 2.015 0 00-2.86 0l-3.363 3.355a2.022 2.022 0 000 2.865l3.117 3.117a3.508 3.508 0 002.467 1.023c.19 0 .375-.015.563-.047 3.878-.639 7.728-2.704 10.836-5.81 3.106-3.111 5.168-6.96 5.813-10.842a3.493 3.493 0 00-.976-3.03zm-1.101 2.68c-.572 3.455-2.429 6.9-5.227 9.698-2.798 2.798-6.24 4.655-9.694 5.227a1.378 1.378 0 01-1.195-.387l-3.062-3.062L8.663 17.9l3.51 3.516.026.026.633-.234a14.098 14.098 0 008.37-8.373l.234-.633-3.538-3.536 3.246-3.249 3.061 3.062c.317.316.463.761.39 1.195z" fill="#CE282E"/></svg>