<svg width="173" height="35" fill="none" xmlns="http://www.w3.org/2000/svg"><rect x="100" y="2" width="73" height="33" rx="16.5" fill="url(#paint0_linear_208_3)"/><path d="M118.888 26.264c-1.232 0-2.413-.161-3.542-.484-1.129-.337-2.039-.77-2.728-1.298l1.21-2.684c.66.47 1.437.858 2.332 1.166.909.293 1.826.44 2.75.44.704 0 1.269-.066 1.694-.198.44-.147.763-.345.968-.594.205-.25.308-.535.308-.858 0-.41-.161-.733-.484-.968-.323-.25-.748-.447-1.276-.594a19.287 19.287 0 00-1.76-.44 24.91 24.91 0 01-1.914-.528 8.157 8.157 0 01-1.738-.792 3.992 3.992 0 01-1.298-1.276c-.323-.528-.484-1.203-.484-2.024 0-.88.235-1.68.704-2.398.484-.733 1.203-1.313 2.156-1.738.968-.44 2.178-.66 3.63-.66.968 0 1.921.117 2.86.352.939.22 1.767.557 2.486 1.012l-1.1 2.706a9.002 9.002 0 00-2.156-.902 7.671 7.671 0 00-2.112-.308c-.689 0-1.254.08-1.694.242-.44.161-.755.374-.946.638-.191.25-.286.543-.286.88 0 .396.161.719.484.968.323.235.748.425 1.276.572.528.147 1.107.293 1.738.44.645.147 1.283.315 1.914.506.645.19 1.232.447 1.76.77s.953.748 1.276 1.276c.337.528.506 1.195.506 2.002 0 .865-.242 1.657-.726 2.376-.484.719-1.21 1.298-2.178 1.738-.953.44-2.163.66-3.63.66zM134.875 26v-2.31l-.22-.506v-4.136c0-.733-.227-1.305-.682-1.716-.44-.41-1.122-.616-2.046-.616-.63 0-1.254.103-1.87.308a4.784 4.784 0 00-1.54.792l-1.232-2.398c.646-.455 1.423-.807 2.332-1.056.91-.25 1.834-.374 2.772-.374 1.804 0 3.205.425 4.202 1.276.998.85 1.496 2.178 1.496 3.982V26h-3.212zm-3.608.176c-.924 0-1.716-.154-2.376-.462-.66-.323-1.166-.755-1.518-1.298a3.283 3.283 0 01-.528-1.826c0-.704.169-1.32.506-1.848.352-.528.902-.939 1.65-1.232.748-.308 1.724-.462 2.926-.462h3.146v2.002h-2.772c-.806 0-1.364.132-1.672.396-.293.264-.44.594-.44.99 0 .44.169.792.506 1.056.352.25.829.374 1.43.374.572 0 1.086-.132 1.54-.396.455-.279.785-.682.99-1.21l.528 1.584c-.249.763-.704 1.342-1.364 1.738-.66.396-1.51.594-2.552.594zM143.685 26l-4.268-11.836h3.234l3.542 10.186h-1.54l3.696-10.186h2.904l3.586 10.186h-1.54l3.652-10.186h3.036L155.697 26h-3.322l-3.146-8.734h1.012L146.985 26h-3.3z" fill="#fff"/><path fill-rule="evenodd" clip-rule="evenodd" d="M41.959 11.293c-1.806-1.571-4.418-2.356-7.837-2.355a19.115 19.115 0 00-4.73.601 13.998 13.998 0 00-4.036 1.66l2.566 5.443a7.43 7.43 0 012.316-1.15 8.993 8.993 0 012.672-.414c2.186 0 3.411.779 3.675 2.338h-3.243c-2.992 0-5.226.511-6.701 1.534-1.476 1.023-2.213 2.52-2.21 4.494a6.065 6.065 0 00.837 3.16 5.859 5.859 0 002.458 2.23c1.08.547 2.393.82 3.936.82 2.757 0 4.599-.998 5.524-2.995v2.631h7.482V18.545c0-3.263-.903-5.68-2.709-7.252zm-5.344 11.491c-.17.57-.519 1.07-.997 1.425a2.6 2.6 0 01-1.532.474 2.05 2.05 0 01-1.408-.455 1.479 1.479 0 01-.516-1.15c0-1.122.82-1.682 2.458-1.682h1.995v1.388zM66.65 9.302l-5.238 9.316-4.63-9.316h-8.516v19.986h7.233v-9.135l3.989 7.564h3.385l4.136-7.381.034 8.952h7.234l-.072-19.986H66.65zm10.95 0v19.999h8.065V9.304l-8.066-.002zM.335 29.286h8.106V.352H.336v28.934z" fill="#fff"/><path d="M81.615 7.572c2.22 0 4.021-1.617 4.021-3.612 0-1.996-1.8-3.614-4.02-3.614-2.221 0-4.015 1.618-4.015 3.614 0 1.995 1.792 3.612 4.014 3.612zM14.42 29.288h9.728L15.455 17.96l8.05-8.659h-9.511l-5.551 5.776v6.516c.785 1.006 1.572 2.012 2.36 3.017 1.22 1.56 2.425 3.12 3.617 4.677z" fill="#fff"/><defs><linearGradient id="paint0_linear_208_3" x1="170.5" y1="-.5" x2="106.5" y2="35" gradientUnits="userSpaceOnUse"><stop stop-color="#2B7B6F"/><stop offset="1" stop-color="#2B364B"/></linearGradient></defs></svg>