<svg xmlns="http://www.w3.org/2000/svg" viewBox="0 0 172.7 34.6"><g fill="#2D2C2E"><path d="M81.3 7.2c2.2 0 4-1.6 4-3.6S83.5 0 81.3 0s-4 1.6-4 3.6 1.8 3.6 4 3.6zM14.1 28.9h9.7l-8.7-11.3 8.1-8.7h-9.5l-5.6 5.8v6.5l2.4 3c1.2 1.6 2.4 3.2 3.6 4.7z"/><path fill-rule="evenodd" clip-rule="evenodd" d="M41.6 10.9c-1.8-1.6-4.4-2.4-7.8-2.4-1.6 0-3.2.2-4.7.6-1.4.3-2.8.9-4 1.7l2.6 5.4c.7-.5 1.5-.9 2.3-1.2.9-.3 1.8-.4 2.7-.4 2.2 0 3.4.8 3.7 2.3H33c-3 0-5.2.5-6.7 1.5s-2.2 2.5-2.2 4.5c0 1.1.3 2.2.8 3.2.6 1 1.4 1.7 2.5 2.2 1.1.5 2.4.8 3.9.8 2.8 0 4.6-1 5.5-3v2.6h7.5V18.2c0-3.3-.9-5.7-2.7-7.3zm-5.3 11.5c-.2.6-.5 1.1-1 1.4-.4.3-1 .5-1.5.5s-1-.1-1.4-.5c-.2-.1-.3-.3-.4-.5-.1-.2-.1-.4-.1-.6 0-1.1.8-1.7 2.5-1.7h2v1.4zm30-13.5l-5.2 9.3-4.6-9.3H48v20h7.2v-9.1l4 7.6h3.4l4.1-7.4v9h7.2l-.1-20h-7.5zm11 0v20h8.1V9l-8.1-.1zM0 28.9h8.1V0H0v28.9z"/></g><linearGradient id="a" gradientUnits="userSpaceOnUse" x1="170.224" y1="32.04" x2="106.224" y2="-3.46" gradientTransform="matrix(1 0 0 -1 0 31.296)"><stop offset="0" stop-color="#2b7b6f"/><stop offset="1" stop-color="#2b364b"/></linearGradient><path fill="url(#a)" d="M116.2 1.6h40c9.1 0 16.5 7.4 16.5 16.5s-7.4 16.5-16.5 16.5h-40c-9.1 0-16.5-7.4-16.5-16.5s7.4-16.5 16.5-16.5z"/><path fill="#FFF" d="M118.6 25.9c-1.2 0-2.4-.2-3.5-.5s-2-.8-2.7-1.3l1.2-2.7c.7.5 1.4.9 2.3 1.2.9.3 1.8.4 2.8.4.7 0 1.3-.1 1.7-.2.4-.1.8-.3 1-.6.2-.2.3-.5.3-.9s-.2-.7-.5-1c-.3-.2-.7-.4-1.3-.6-.5-.2-1.1-.3-1.8-.4-.6-.1-1.3-.3-1.9-.5-.6-.2-1.2-.5-1.7-.8s-1-.7-1.3-1.3c-.3-.5-.5-1.2-.5-2 0-.9.2-1.7.7-2.4.5-.7 1.2-1.3 2.2-1.7 1-.4 2.2-.7 3.6-.7 1 0 1.9.1 2.9.4.9.2 1.8.6 2.5 1l-1.1 2.7c-.7-.4-1.4-.7-2.2-.9-.7-.2-1.4-.3-2.1-.3s-1.3.1-1.7.2-.8.4-.9.6c-.2.2-.3.5-.3.9s.2.7.5 1c.3.2.7.4 1.3.6.5.1 1.1.3 1.7.4.6.1 1.3.3 1.9.5.6.2 1.2.4 1.8.8.5.3 1 .7 1.3 1.3.3.5.5 1.2.5 2 0 .9-.2 1.7-.7 2.4s-1.2 1.3-2.2 1.7c-1.2.5-2.4.7-3.8.7zm15.9-.3v-2.3l-.2-.5v-4.1c0-.7-.2-1.3-.7-1.7-.4-.4-1.1-.6-2-.6-.6 0-1.3.1-1.9.3-.6.2-1.1.5-1.5.8l-1.2-2.4c.6-.5 1.4-.8 2.3-1.1.9-.2 1.8-.4 2.8-.4 1.8 0 3.2.4 4.2 1.3s1.5 2.2 1.5 4v6.8h-3.3zm-3.6.2c-.9 0-1.7-.2-2.4-.5s-1.2-.8-1.5-1.3c-.4-.5-.5-1.2-.5-1.8 0-.7.2-1.3.5-1.8.4-.5.9-.9 1.7-1.2.7-.3 1.7-.5 2.9-.5h3.1v2H132c-.8 0-1.4.1-1.7.4-.3.3-.4.6-.4 1s.2.8.5 1.1c.4.2.8.4 1.4.4.6 0 1.1-.1 1.5-.4.5-.3.8-.7 1-1.2l.5 1.6c-.2.8-.7 1.3-1.4 1.7s-1.4.5-2.5.5zm12.4-.2L139 13.8h3.2l3.5 10.2h-1.5l3.7-10.2h2.9l3.6 10.2H153l3.7-10.2h3l-4.3 11.8H152l-3.1-8.7h1l-3.3 8.7h-3.3z"/></svg>