<?xml version="1.0" encoding="utf-8"?>
<!-- Generator: Adobe Illustrator 26.3.1, SVG Export Plug-In . SVG Version: 6.00 Build 0)  -->
<svg version="1.1" id="Слой_1" xmlns="http://www.w3.org/2000/svg" xmlns:xlink="http://www.w3.org/1999/xlink" x="0px" y="0px"
     viewBox="0 0 172.7 34.6" enable-background="new 0 0 172.7 34.6" xml:space="preserve">
<g>
	<g>
		<path fill="#2D2C2E" d="M81.3,7.2c2.2,0,4-1.6,4-3.6S83.5,0,81.3,0c-2.2,0-4,1.6-4,3.6S79.1,7.2,81.3,7.2z M14.1,28.9h9.7
			l-8.7-11.3l8.1-8.7h-9.5l-5.6,5.8v6.5c0.8,1,1.6,2,2.4,3C11.7,25.8,12.9,27.4,14.1,28.9z"/>
        <path fill-rule="evenodd" clip-rule="evenodd" fill="#2D2C2E" d="M41.6,10.9c-1.8-1.6-4.4-2.4-7.8-2.4c-1.6,0-3.2,0.2-4.7,0.6
			c-1.4,0.3-2.8,0.9-4,1.7l2.6,5.4c0.7-0.5,1.5-0.9,2.3-1.2c0.9-0.3,1.8-0.4,2.7-0.4c2.2,0,3.4,0.8,3.7,2.3H33c-3,0-5.2,0.5-6.7,1.5
			c-1.5,1-2.2,2.5-2.2,4.5c0,1.1,0.3,2.2,0.8,3.2c0.6,1,1.4,1.7,2.5,2.2c1.1,0.5,2.4,0.8,3.9,0.8c2.8,0,4.6-1,5.5-3v2.6h7.5V18.2
			C44.3,14.9,43.4,12.5,41.6,10.9z M36.3,22.4c-0.2,0.6-0.5,1.1-1,1.4c-0.4,0.3-1,0.5-1.5,0.5c-0.5,0-1-0.1-1.4-0.5
			c-0.2-0.1-0.3-0.3-0.4-0.5c-0.1-0.2-0.1-0.4-0.1-0.6c0-1.1,0.8-1.7,2.5-1.7h2V22.4z M66.3,8.9l-5.2,9.3l-4.6-9.3h-8.5v20h7.2v-9.1
			l4,7.6h3.4l4.1-7.4l0,9h7.2l-0.1-20H66.3z M77.3,8.9v20h8.1V9L77.3,8.9z M0,28.9h8.1V0H0V28.9z"/>
	</g>
</g>
    <linearGradient id="SVGID_1_" gradientUnits="userSpaceOnUse" x1="170.224" y1="32.0403" x2="106.2239" y2="-3.4597" gradientTransform="matrix(1 0 0 -1 0 31.2956)">
	<stop  offset="0" style="stop-color:#2B7B6F"/>
        <stop  offset="1" style="stop-color:#2B364B"/>
</linearGradient>
    <path fill="url(#SVGID_1_)" d="M116.2,1.6h40c9.1,0,16.5,7.4,16.5,16.5l0,0c0,9.1-7.4,16.5-16.5,16.5h-40c-9.1,0-16.5-7.4-16.5-16.5
	l0,0C99.7,9,107.1,1.6,116.2,1.6z"/>
    <path fill="#FFFFFF" d="M118.6,25.9c-1.2,0-2.4-0.2-3.5-0.5c-1.1-0.3-2-0.8-2.7-1.3l1.2-2.7c0.7,0.5,1.4,0.9,2.3,1.2
	c0.9,0.3,1.8,0.4,2.8,0.4c0.7,0,1.3-0.1,1.7-0.2c0.4-0.1,0.8-0.3,1-0.6c0.2-0.2,0.3-0.5,0.3-0.9c0-0.4-0.2-0.7-0.5-1
	c-0.3-0.2-0.7-0.4-1.3-0.6c-0.5-0.2-1.1-0.3-1.8-0.4c-0.6-0.1-1.3-0.3-1.9-0.5c-0.6-0.2-1.2-0.5-1.7-0.8s-1-0.7-1.3-1.3
	c-0.3-0.5-0.5-1.2-0.5-2c0-0.9,0.2-1.7,0.7-2.4c0.5-0.7,1.2-1.3,2.2-1.7c1-0.4,2.2-0.7,3.6-0.7c1,0,1.9,0.1,2.9,0.4
	c0.9,0.2,1.8,0.6,2.5,1l-1.1,2.7c-0.7-0.4-1.4-0.7-2.2-0.9c-0.7-0.2-1.4-0.3-2.1-0.3s-1.3,0.1-1.7,0.2s-0.8,0.4-0.9,0.6
	c-0.2,0.2-0.3,0.5-0.3,0.9c0,0.4,0.2,0.7,0.5,1c0.3,0.2,0.7,0.4,1.3,0.6c0.5,0.1,1.1,0.3,1.7,0.4c0.6,0.1,1.3,0.3,1.9,0.5
	c0.6,0.2,1.2,0.4,1.8,0.8c0.5,0.3,1,0.7,1.3,1.3c0.3,0.5,0.5,1.2,0.5,2c0,0.9-0.2,1.7-0.7,2.4s-1.2,1.3-2.2,1.7
	C121.2,25.7,120,25.9,118.6,25.9z M134.5,25.6v-2.3l-0.2-0.5v-4.1c0-0.7-0.2-1.3-0.7-1.7c-0.4-0.4-1.1-0.6-2-0.6
	c-0.6,0-1.3,0.1-1.9,0.3c-0.6,0.2-1.1,0.5-1.5,0.8l-1.2-2.4c0.6-0.5,1.4-0.8,2.3-1.1c0.9-0.2,1.8-0.4,2.8-0.4c1.8,0,3.2,0.4,4.2,1.3
	c1,0.9,1.5,2.2,1.5,4v6.8H134.5z M130.9,25.8c-0.9,0-1.7-0.2-2.4-0.5c-0.7-0.3-1.2-0.8-1.5-1.3c-0.4-0.5-0.5-1.2-0.5-1.8
	c0-0.7,0.2-1.3,0.5-1.8c0.4-0.5,0.9-0.9,1.7-1.2c0.7-0.3,1.7-0.5,2.9-0.5h3.1v2H132c-0.8,0-1.4,0.1-1.7,0.4c-0.3,0.3-0.4,0.6-0.4,1
	c0,0.4,0.2,0.8,0.5,1.1c0.4,0.2,0.8,0.4,1.4,0.4c0.6,0,1.1-0.1,1.5-0.4c0.5-0.3,0.8-0.7,1-1.2l0.5,1.6c-0.2,0.8-0.7,1.3-1.4,1.7
	S132,25.8,130.9,25.8z M143.3,25.6l-4.3-11.8h3.2l3.5,10.2h-1.5l3.7-10.2h2.9l3.6,10.2H153l3.7-10.2h3l-4.3,11.8H152l-3.1-8.7h1
	l-3.3,8.7H143.3z"/>
</svg>
